# xmcd
#
# Track frame offsets:
#	150
#	18055
#	23338
#	40315
#	44448
#	47195
#	48063
#	56073
#	57628
#	61313
#	63413
#	80358
#	82403
#	100080
#	103563
#	121825
#	125448
#	144750
#	147070
#	166250
#	170510
#	189650
#
# Disc length: 2653 seconds
#
# Revision: 1
# Processed by: cddbd v1.5PL3 Copyright (c) Steve Scherf et al.
# Submitted via: CDex 1.50Beta5
#
DISCID=260a5b16
DTITLE=竹本泉・TWO FIVE - だいな▼あいらん 音径
DYEAR=1900
DGENRE=
TTITLE0=だいな▼あいらん
TTITLE1=まずは自己紹介!
TTITLE2=オ・ハ・ヨ・ウ!
TTITLE3=彼が水島理論君です。
TTITLE4=水島の歌
TTITLE5=歌ってみようかな・・・
TTITLE6=えみりの歌
TTITLE7=次はわたしの番ね!
TTITLE8=あんじぇの歌
TTITLE9=歌う恐竜使いになりたいの
TTITLE10=歌う恐竜とデュエット
TTITLE11=将来?決まってんじゃない!
TTITLE12=だいな DE ロック (あんじぇVersion)
TTITLE13=あやや?、練習しなくちゃ・・・
TTITLE14=ゾンビでダンス
TTITLE15=えみりのために、特訓よ!
TTITLE16=無敵のヒロイン
TTITLE17=あがっちゃう、どうしよう・・・
TTITLE18=えみりの子守歌
TTITLE19=なんとか合格!
TTITLE20=おおきい おおきい
TTITLE21=おまけCM集
EXTD=
EXTT0=
EXTT1=
EXTT2=
EXTT3=
EXTT4=
EXTT5=
EXTT6=
EXTT7=
EXTT8=
EXTT9=
EXTT10=
EXTT11=
EXTT12=
EXTT13=
EXTT14=
EXTT15=
EXTT16=
EXTT17=
EXTT18=
EXTT19=
EXTT20=
EXTT21=
PLAYORDER=
